<svg width="13" height="8" viewBox="0 0 13 8" fill="none" xmlns="http://www.w3.org/2000/svg">
<path d="M6.7998 7.31055C6.57194 7.31055 6.36458 7.2194 6.17773 7.03711L0.975586 1.71191C0.898112 1.639 0.838867 1.55697 0.797852 1.46582C0.761393 1.37012 0.743164 1.26758 0.743164 1.1582C0.743164 1.00781 0.777344 0.871094 0.845703 0.748047C0.91862 0.625 1.01432 0.529297 1.13281 0.460938C1.2513 0.388021 1.38574 0.351562 1.53613 0.351562C1.75488 0.351562 1.94629 0.433594 2.11035 0.597656L7.13477 5.74512H6.47168L11.4893 0.597656C11.6533 0.433594 11.8447 0.351562 12.0635 0.351562C12.2139 0.351562 12.3483 0.388021 12.4668 0.460938C12.5853 0.529297 12.6787 0.625 12.7471 0.748047C12.82 0.871094 12.8564 1.00781 12.8564 1.1582C12.8564 1.3724 12.779 1.55697 12.624 1.71191L7.42188 7.03711C7.33529 7.12826 7.23958 7.19661 7.13477 7.24219C7.02995 7.28776 6.91829 7.31055 6.7998 7.31055Z" fill="#4285F4"/>
</svg>
